<svg width="24" height="24" viewBox="0 0 24 24" fill="none" xmlns="http://www.w3.org/2000/svg">
<path d="M2.222 11.1211C2.39419 10.9489 2.62329 10.8454 2.86632 10.8302C3.10934 10.8149 3.34959 10.8888 3.542 11.0381L3.636 11.1211L7.878 15.3641C8.05735 15.544 8.16147 15.7855 8.16923 16.0394C8.17698 16.2934 8.08778 16.5408 7.91975 16.7313C7.75172 16.9219 7.51745 17.0414 7.26452 17.0655C7.0116 17.0895 6.75899 17.0165 6.558 16.8611L6.464 16.7781L2.222 12.5361C2.12902 12.4432 2.05526 12.3329 2.00494 12.2115C1.95461 12.0901 1.92871 11.96 1.92871 11.8286C1.92871 11.6971 1.95461 11.567 2.00494 11.4456C2.05526 11.3242 2.12902 11.2139 2.222 11.1211ZM22.778 5.46505C22.9502 5.63724 23.0536 5.86634 23.0689 6.10937C23.0842 6.3524 23.0103 6.59265 22.861 6.78505L22.778 6.87905L12.949 16.7071C12.7585 16.8978 12.5045 17.012 12.2354 17.0278C11.9662 17.0437 11.7006 16.9601 11.489 16.7931L11.393 16.7081L7.222 12.5361C7.04074 12.3565 6.93497 12.1145 6.92631 11.8595C6.91766 11.6045 7.00679 11.3559 7.17546 11.1645C7.34413 10.9731 7.57958 10.8533 7.83362 10.8298C8.08766 10.8063 8.34108 10.8808 8.542 11.0381L8.636 11.1211L12.171 14.6571L21.364 5.46505C21.5515 5.27758 21.8058 5.17226 22.071 5.17226C22.3362 5.17226 22.5905 5.27758 22.778 5.46505ZM17.778 5.46505C17.9502 5.63724 18.0536 5.86634 18.0689 6.10937C18.0842 6.3524 18.0103 6.59265 17.861 6.78505L17.778 6.87905L12.828 11.8291C12.648 12.0084 12.4066 12.1125 12.1526 12.1203C11.8987 12.128 11.6513 12.0388 11.4607 11.8708C11.2702 11.7028 11.1507 11.4685 11.1266 11.2156C11.1025 10.9627 11.1756 10.71 11.331 10.5091L11.414 10.4141L16.364 5.46405C16.5515 5.27658 16.8058 5.17126 17.071 5.17126C17.3362 5.17126 17.5905 5.27758 17.778 5.46505Z" fill="#0E1621"/>
</svg>
