<svg width="16" height="16" viewBox="0 0 16 16" fill="none" xmlns="http://www.w3.org/2000/svg">
<path d="M11.1334 13.1532H4.8667C4.37337 13.1532 3.87337 12.7998 3.7067 12.3398L0.946705 4.61316C0.606705 3.63982 0.853371 3.19316 1.12004 2.99316C1.3867 2.79316 1.8867 2.67316 2.7267 3.27316L5.3267 5.13316C5.4067 5.17982 5.48004 5.19982 5.53337 5.18649C5.59337 5.16649 5.64004 5.11316 5.67337 5.01982L6.84671 1.89316C7.20004 0.959824 7.72004 0.819824 8.00004 0.819824C8.28004 0.819824 8.80004 0.959824 9.15337 1.89316L10.3267 5.01982C10.36 5.10649 10.4067 5.16649 10.4667 5.18649C10.5267 5.20649 10.6 5.18649 10.6734 5.12649L13.1134 3.38649C14.0067 2.74649 14.5267 2.87316 14.8134 3.07982C15.0934 3.29316 15.3534 3.76649 14.9867 4.79982L12.2934 12.3398C12.1267 12.7998 11.6267 13.1532 11.1334 13.1532ZM1.7867 3.87316C1.80004 3.96649 1.8267 4.09982 1.89337 4.27316L4.65337 11.9998C4.68004 12.0665 4.80004 12.1532 4.8667 12.1532H11.1334C11.2067 12.1532 11.3267 12.0665 11.3467 11.9998L14.04 4.46649C14.1334 4.21316 14.16 4.03982 14.1667 3.93982C14.0667 3.97316 13.9134 4.04649 13.6934 4.20649L11.2534 5.94649C10.92 6.17982 10.5267 6.25316 10.1734 6.14649C9.82004 6.03982 9.53337 5.75982 9.38671 5.37982L8.21337 2.25316C8.1267 2.01982 8.04671 1.90649 8.00004 1.85316C7.95337 1.90649 7.87337 2.01982 7.78671 2.24649L6.61337 5.37316C6.47337 5.75316 6.1867 6.03316 5.8267 6.13982C5.47337 6.24649 5.07337 6.17316 4.7467 5.93982L2.1467 4.07982C1.99337 3.97316 1.87337 3.90649 1.7867 3.87316Z" fill="#0E1621"/>
<path d="M11.6667 15.1665H4.33337C4.06004 15.1665 3.83337 14.9398 3.83337 14.6665C3.83337 14.3932 4.06004 14.1665 4.33337 14.1665H11.6667C11.94 14.1665 12.1667 14.3932 12.1667 14.6665C12.1667 14.9398 11.94 15.1665 11.6667 15.1665Z" fill="#0E1621"/>
<path d="M9.66671 9.8335H6.33337C6.06004 9.8335 5.83337 9.60683 5.83337 9.3335C5.83337 9.06016 6.06004 8.8335 6.33337 8.8335H9.66671C9.94004 8.8335 10.1667 9.06016 10.1667 9.3335C10.1667 9.60683 9.94004 9.8335 9.66671 9.8335Z" fill="#0E1621"/>
</svg>
