<svg width="25" height="24" viewBox="0 0 25 24" fill="none" xmlns="http://www.w3.org/2000/svg">
<path d="M20.9449 17.6609C20.9432 17.6593 20.9414 17.6578 20.9397 17.6563L14.6601 12.1806L15.7077 10.9739C16.1059 11.1352 16.5429 11.2196 16.9869 11.2197C16.987 11.2197 16.987 11.2197 16.9871 11.2197C17.4742 11.2197 17.955 11.1226 18.4161 10.9313C18.8919 10.7338 19.3209 10.446 19.691 10.0759L20.6157 9.15116C21.308 8.45888 21.7129 7.55648 21.7559 6.6102C21.777 6.14643 21.7098 5.69777 21.5561 5.27669C21.3958 4.8374 21.1486 4.44867 20.8212 4.12131C20.216 3.51613 19.3901 3.18284 18.4956 3.18284C18.0083 3.18284 17.5274 3.27989 17.0663 3.47129C16.5904 3.6688 16.1615 3.95663 15.7913 4.3268L14.8666 5.25147C14.2947 5.82339 13.919 6.53613 13.7802 7.31266C13.6623 7.97201 13.7296 8.64402 13.9687 9.23484L12.6223 10.4037L10.8148 8.8275C11.0397 8.21479 11.0771 7.50735 10.9177 6.80524C10.7329 5.99129 10.3061 5.23191 9.68341 4.6092L7.67013 2.59592C7.52954 2.45533 7.3016 2.45533 7.16101 2.59592C7.02043 2.73651 7.02043 2.96445 7.16101 3.10504L9.17429 5.11832C10.2209 6.16497 10.5841 7.66793 10.0574 8.77326C9.98794 8.91907 10.0241 9.0933 10.1458 9.19945L12.0734 10.8803L11.0684 11.7527L9.44936 9.89592C9.34321 9.77419 9.16897 9.73804 9.02316 9.80753C7.91786 10.3342 6.41486 9.97112 5.3682 8.92447L3.35492 6.91117C3.21433 6.77058 2.98638 6.77058 2.8458 6.91117C2.70521 7.05175 2.70521 7.27969 2.84579 7.42028L4.85908 9.43359C5.48179 10.0563 6.24117 10.4831 7.05512 10.6679C7.75724 10.8273 8.46469 10.7899 9.0774 10.5649L10.5247 12.2247L4.15004 17.759C4.14858 17.7603 4.14712 17.7616 4.14568 17.7629C3.7023 18.1606 3.44937 18.7018 3.43349 19.287C3.41761 19.8721 3.64078 20.4263 4.06193 20.8474L4.09512 20.8806C4.50086 21.2863 5.03477 21.5098 5.59852 21.5098C6.19693 21.5098 6.77321 21.2499 7.17961 20.7968C7.18091 20.7954 7.18219 20.7939 7.18346 20.7924L12.5777 14.5791L17.9062 20.6898C17.9077 20.6915 17.9092 20.6932 17.9108 20.6949C18.3655 21.1967 18.9921 21.4934 19.6298 21.5091C19.6478 21.5095 19.6658 21.5097 19.6838 21.5097C20.2367 21.5097 20.7497 21.3003 21.1334 20.9166L21.1665 20.8834C21.5626 20.4873 21.7731 19.9533 21.759 19.3799C21.7433 18.7422 21.4466 18.1156 20.9449 17.6609ZM6.64184 20.318C6.36802 20.6223 5.9976 20.7898 5.59852 20.7898C5.22709 20.7898 4.87397 20.6412 4.6042 20.3715L4.57101 20.3383C4.29114 20.0584 4.14276 19.692 4.15322 19.3065C4.16366 18.922 4.33095 18.5649 4.62434 18.3007L11.2674 12.5335C11.2682 12.5328 11.269 12.5321 11.2698 12.5314C11.2704 12.5309 11.271 12.5304 11.2716 12.5298L14.6439 9.60207C14.7692 9.49331 14.804 9.31303 14.728 9.16551C14.1765 8.0936 14.4429 6.69345 15.3757 5.76059L16.3004 4.83591C16.8934 4.24293 17.6935 3.90284 18.4956 3.90284C19.1978 3.90284 19.8429 4.16123 20.3121 4.63042C21.3614 5.67976 21.2692 7.47937 20.1066 8.64204L19.1819 9.56674C18.589 10.1597 17.789 10.4997 16.987 10.4997C16.558 10.4996 16.1396 10.401 15.777 10.2145C15.6295 10.1386 15.4492 10.1734 15.3405 10.2986L6.64184 20.318ZM20.6573 20.3744L20.6242 20.4075C20.3688 20.6629 20.022 20.7985 19.6475 20.7893C19.2068 20.7785 18.7692 20.5688 18.4464 20.2138L13.0543 14.0301L14.1881 12.7242L20.4638 18.1966C20.8187 18.5194 21.0284 18.9569 21.0392 19.3976C21.0484 19.772 20.9128 20.1189 20.6573 20.3744Z" fill="#768C9E" stroke="#768C9E" stroke-width="0.5"/>
<path d="M8.57083 7.45014C8.64113 7.52043 8.73326 7.55558 8.82539 7.55558C8.91753 7.55558 9.00966 7.52043 9.07996 7.45014C9.22054 7.30955 9.22054 7.08161 9.07996 6.94102L6.20238 4.06345C6.06179 3.92286 5.83385 3.92286 5.69326 4.06345C5.55267 4.20404 5.55267 4.43198 5.69326 4.57257L8.57083 7.45014ZM7.19099 8.82995C7.26129 8.90024 7.35342 8.93539 7.44555 8.93539C7.53769 8.93539 7.62982 8.90024 7.70011 8.82995C7.8407 8.68936 7.8407 8.46142 7.70011 8.32083L4.82257 5.44328C4.68198 5.30269 4.45404 5.30269 4.31345 5.44328C4.17286 5.58387 4.17286 5.81181 4.31345 5.9524L7.19099 8.82995Z" fill="#768C9E" stroke="#768C9E" stroke-width="0.5"/>
</svg>
