<svg width="25" height="24" viewBox="0 0 25 24" fill="none" xmlns="http://www.w3.org/2000/svg">
<path d="M9.42 22.75H2.75C2.34 22.75 2 22.41 2 22V16C2 14.48 3.23 13.25 4.75 13.25H9.42C9.83 13.25 10.17 13.59 10.17 14V22C10.17 22.41 9.83 22.75 9.42 22.75ZM3.5 21.25H8.67V14.75H4.75C4.06 14.75 3.5 15.31 3.5 16V21.25Z" fill="#768C9E"/>
<path d="M16.0802 22.75H9.41016C9.00016 22.75 8.66016 22.41 8.66016 22V12C8.66016 10.48 9.89016 9.25 11.4102 9.25H14.0802C15.6002 9.25 16.8302 10.48 16.8302 12V22C16.8302 22.41 16.5002 22.75 16.0802 22.75ZM10.1702 21.25H15.3402V12C15.3402 11.31 14.7802 10.75 14.0902 10.75H11.4202C10.7302 10.75 10.1702 11.31 10.1702 12V21.25Z" fill="#768C9E"/>
<path d="M22.7501 22.75H16.0801C15.6701 22.75 15.3301 22.41 15.3301 22V17C15.3301 16.59 15.6701 16.25 16.0801 16.25H20.7501C22.2701 16.25 23.5001 17.48 23.5001 19V22C23.5001 22.41 23.1601 22.75 22.7501 22.75ZM16.8301 21.25H22.0001V19C22.0001 18.31 21.4401 17.75 20.7501 17.75H16.8301V21.25Z" fill="#768C9E"/>
<path d="M14.4499 8.34999C14.2099 8.34999 13.9099 8.27997 13.5699 8.07997L12.7499 7.58998L11.9399 8.06999C11.1199 8.55999 10.5799 8.26998 10.3799 8.12998C10.1799 7.98998 9.74989 7.54998 9.95989 6.62998L10.1499 5.79997L9.46989 5.11997C9.04989 4.69997 8.89989 4.19997 9.04989 3.73997C9.19989 3.27997 9.60989 2.95996 10.1899 2.85996L11.0599 2.70997L11.5499 1.72999C12.0899 0.65999 13.3999 0.65999 13.9299 1.72999L14.4199 2.70997L15.2899 2.85996C15.8699 2.95996 16.2899 3.27997 16.4299 3.73997C16.5799 4.19997 16.4199 4.69997 16.0099 5.11997L15.3299 5.79997L15.5199 6.62998C15.7299 7.55998 15.2999 7.98999 15.0999 8.13999C15.0099 8.21999 14.7799 8.34999 14.4499 8.34999ZM12.7499 6.07997C12.9899 6.07997 13.2299 6.13999 13.4299 6.25999L13.9899 6.58998L13.8699 6.04997C13.7699 5.62997 13.9199 5.11998 14.2299 4.80998L14.7399 4.29997L14.1099 4.18998C13.7099 4.11998 13.3199 3.82998 13.1399 3.46998L12.7499 2.71998L12.3699 3.46998C12.1899 3.82998 11.7999 4.11998 11.3999 4.18998L10.7699 4.28999L11.2799 4.79997C11.5899 5.10997 11.7299 5.61999 11.6399 6.03999L11.5199 6.57997L12.0799 6.24998C12.2699 6.12998 12.5099 6.07997 12.7499 6.07997Z" fill="#768C9E"/>
</svg>
