<svg width="25" height="24" viewBox="0 0 25 24" fill="none" xmlns="http://www.w3.org/2000/svg">
<path d="M7.12988 18.9001C6.71988 18.9001 6.37988 18.5601 6.37988 18.1501V16.0801C6.37988 15.6701 6.71988 15.3301 7.12988 15.3301C7.53988 15.3301 7.87988 15.6701 7.87988 16.0801V18.1501C7.87988 18.5701 7.53988 18.9001 7.12988 18.9001Z" fill="#768C9E"/>
<path d="M12.25 18.9C11.84 18.9 11.5 18.56 11.5 18.15V14C11.5 13.59 11.84 13.25 12.25 13.25C12.66 13.25 13 13.59 13 14V18.15C13 18.57 12.66 18.9 12.25 18.9Z" fill="#768C9E"/>
<path d="M7.13007 13.1799C6.79007 13.1799 6.49007 12.9499 6.40007 12.6099C6.30007 12.2099 6.54007 11.7999 6.95007 11.6999C10.6301 10.7799 13.8701 8.76992 16.3401 5.89992L16.8001 5.35992C17.0701 5.04992 17.5401 5.00992 17.8601 5.27992C18.1701 5.54992 18.2101 6.01992 17.9401 6.33992L17.4801 6.87992C14.8101 9.99992 11.2901 12.1699 7.31007 13.1599C7.25007 13.1799 7.19007 13.1799 7.13007 13.1799Z" fill="#768C9E"/>
<path d="M17.3699 9.5201C16.9599 9.5201 16.6199 9.1801 16.6199 8.7701V6.6001H14.4399C14.0299 6.6001 13.6899 6.2601 13.6899 5.8501C13.6899 5.4401 14.0299 5.1001 14.4399 5.1001H17.3699C17.7799 5.1001 18.1199 5.4401 18.1199 5.8501V8.7801C18.1199 9.1901 17.7899 9.5201 17.3699 9.5201Z" fill="#768C9E"/>
<path d="M15.25 22.75H9.25C3.82 22.75 1.5 20.43 1.5 15V9C1.5 3.57 3.82 1.25 9.25 1.25H15.25C20.68 1.25 23 3.57 23 9V15C23 20.43 20.68 22.75 15.25 22.75ZM9.25 2.75C4.64 2.75 3 4.39 3 9V15C3 19.61 4.64 21.25 9.25 21.25H15.25C19.86 21.25 21.5 19.61 21.5 15V9C21.5 4.39 19.86 2.75 15.25 2.75H9.25Z" fill="#768C9E"/>
</svg>
