<svg width="60" height="60" viewBox="0 0 60 60" fill="none" xmlns="http://www.w3.org/2000/svg">
<path d="M30 56.875C15.175 56.875 3.125 44.825 3.125 30C3.125 15.175 15.175 3.125 30 3.125C44.825 3.125 56.875 15.175 56.875 30C56.875 44.825 44.825 56.875 30 56.875ZM30 6.875C17.25 6.875 6.875 17.25 6.875 30C6.875 42.75 17.25 53.125 30 53.125C42.75 53.125 53.125 42.75 53.125 30C53.125 17.25 42.75 6.875 30 6.875Z" fill="#0E1621"/>
<path d="M26.45 38.95C25.95 38.95 25.475 38.75 25.125 38.4L18.05 31.325C17.325 30.6 17.325 29.4 18.05 28.675C18.775 27.95 19.975 27.95 20.7 28.675L26.45 34.425L39.3 21.575C40.025 20.85 41.225 20.85 41.95 21.575C42.675 22.3 42.675 23.5 41.95 24.225L27.775 38.4C27.425 38.75 26.95 38.95 26.45 38.95Z" fill="#0E1621"/>
</svg>
