<svg width="20" height="21" viewBox="0 0 20 21" fill="none" xmlns="http://www.w3.org/2000/svg">
<path d="M2.5 5.375H4.16667H17.5" stroke="#F04750" stroke-width="2" stroke-linecap="round" stroke-linejoin="round"/>
<path d="M15.8332 5.37484V17.0415C15.8332 17.4835 15.6576 17.9075 15.345 18.22C15.0325 18.5326 14.6085 18.7082 14.1665 18.7082H5.83317C5.39114 18.7082 4.96722 18.5326 4.65466 18.22C4.3421 17.9075 4.1665 17.4835 4.1665 17.0415V5.37484M6.6665 5.37484V3.70817C6.6665 3.26614 6.8421 2.84222 7.15466 2.52966C7.46722 2.2171 7.89114 2.0415 8.33317 2.0415H11.6665C12.1085 2.0415 12.5325 2.2171 12.845 2.52966C13.1576 2.84222 13.3332 3.26614 13.3332 3.70817V5.37484" stroke="#F04750" stroke-width="2" stroke-linecap="round" stroke-linejoin="round"/>
<path d="M8.3335 9.5415V14.5415" stroke="#F04750" stroke-width="2" stroke-linecap="round" stroke-linejoin="round"/>
<path d="M11.6665 9.5415V14.5415" stroke="#F04750" stroke-width="2" stroke-linecap="round" stroke-linejoin="round"/>
</svg>
