<svg width="24" height="24" viewBox="0 0 24 24" fill="none" xmlns="http://www.w3.org/2000/svg">
<path d="M9.99904 12.9997L9.94442 12.2517L9.99904 12.9997ZM14.0032 12.9992L13.9487 13.7472L14.0032 12.9992ZM5.3586 17.9562L4.61626 17.8493V17.8493L5.3586 17.9562ZM5.42419 17.5007L6.16653 17.6076L6.16653 17.6076L5.42419 17.5007ZM7.49126 20.7584L7.41153 21.5041H7.41153L7.49126 20.7584ZM11.0893 21.0047L11.0595 21.7541L11.0744 21.7547H11.0893V21.0047ZM12 21.7547C12.4142 21.7547 12.75 21.4189 12.75 21.0047C12.75 20.5905 12.4142 20.2547 12 20.2547V21.7547ZM15.5303 15.4697C15.2374 15.1768 14.7626 15.1768 14.4697 15.4697C14.1768 15.7626 14.1768 16.2374 14.4697 16.5303L15.5303 15.4697ZM18.4697 20.5303C18.7626 20.8232 19.2374 20.8232 19.5303 20.5303C19.8232 20.2374 19.8232 19.7626 19.5303 19.4697L18.4697 20.5303ZM19.5303 16.5303C19.8232 16.2374 19.8232 15.7626 19.5303 15.4697C19.2374 15.1768 18.7626 15.1768 18.4697 15.4697L19.5303 16.5303ZM14.4697 19.4697C14.1768 19.7626 14.1768 20.2374 14.4697 20.5303C14.7626 20.8232 15.2374 20.8232 15.5303 20.5303L14.4697 19.4697ZM10.0537 13.7477C11.3848 13.6505 12.6203 13.6504 13.9487 13.7472L14.0577 12.2511C12.6565 12.149 11.3481 12.1492 9.94442 12.2517L10.0537 13.7477ZM6.10095 18.0631L6.16653 17.6076L4.68185 17.3938L4.61626 17.8493L6.10095 18.0631ZM7.571 20.0126C6.63588 19.9126 5.96094 19.0354 6.10095 18.0631L4.61626 17.8493C4.36068 19.6243 5.59312 21.3097 7.41153 21.5041L7.571 20.0126ZM9.94442 12.2517C7.15272 12.4556 5.06782 14.7133 4.68185 17.3938L6.16653 17.6076C6.46616 15.5267 8.05872 13.8934 10.0537 13.7477L9.94442 12.2517ZM13.9487 13.7472C14.2811 13.7714 14.5999 13.8361 14.9022 13.9361L15.3733 12.512C14.9551 12.3737 14.5147 12.2844 14.0577 12.2511L13.9487 13.7472ZM11.1191 20.2553C10.0528 20.2129 8.60746 20.1234 7.571 20.0126L7.41153 21.5041C8.49322 21.6198 9.9746 21.7109 11.0595 21.7541L11.1191 20.2553ZM11.0893 21.7547H12V20.2547H11.0893V21.7547ZM14.4697 16.5303L16.4697 18.5303L17.5303 17.4697L15.5303 15.4697L14.4697 16.5303ZM16.4697 18.5303L18.4697 20.5303L19.5303 19.4697L17.5303 17.4697L16.4697 18.5303ZM18.4697 15.4697L16.4697 17.4697L17.5303 18.5303L19.5303 16.5303L18.4697 15.4697ZM16.4697 17.4697L14.4697 19.4697L15.5303 20.5303L17.5303 18.5303L16.4697 17.4697ZM14.75 6.5C14.75 8.01878 13.5188 9.25 12 9.25V10.75C14.3472 10.75 16.25 8.84721 16.25 6.5H14.75ZM12 9.25C10.4812 9.25 9.25 8.01878 9.25 6.5H7.75C7.75 8.84721 9.65279 10.75 12 10.75V9.25ZM9.25 6.5C9.25 4.98122 10.4812 3.75 12 3.75V2.25C9.65279 2.25 7.75 4.15279 7.75 6.5H9.25ZM12 3.75C13.5188 3.75 14.75 4.98122 14.75 6.5H16.25C16.25 4.15279 14.3472 2.25 12 2.25V3.75Z" fill="#F04750"/>
</svg>
